# xmcd
#
# Track frame offsets: 
#        151
#        12901
#        29309
#        46853
#        55554
#        74851
#        82447
#        103286
#        124839
#
# Disc length: 1892 seconds
#
# Revision: 0
# Processed by: cddbd v1.5.2PL0 Copyright (c) Steve Scherf et al.
# Submitted via: ExactAudioCopy v1.1
#
DISCID=7f076209
DTITLE=Pelkotila - Pelon ilmapiiri
DYEAR=2017
DGENRE=crust
TTITLE0=Itsekkyyden diktatuuri
TTITLE1=Puutteellinen ihminen
TTITLE2=Mitättömyys
TTITLE3=Musta taivas
TTITLE4=Toinen tie
TTITLE5=Luovuttakaa
TTITLE6=Pelon ilmapiiri
TTITLE7=Itsesääli
TTITLE8=Huominen jää
EXTD=
EXTT0=
EXTT1=
EXTT2=
EXTT3=
EXTT4=
EXTT5=
EXTT6=
EXTT7=
EXTT8=
PLAYORDER=
